<svg width="178" height="40" viewBox="0 0 178 40" fill="none" xmlns="http://www.w3.org/2000/svg">
<path d="M153.764 3.328L158.552 5.632C158.804 5.74 159.092 5.884 159.092 6.208C159.092 6.532 158.768 6.604 158.48 6.604C158.372 6.604 158.3 6.604 158.012 6.568C157.436 7.576 156.68 9.016 156.068 10.276C154.52 13.516 153.296 16.036 152.252 18.16C153.404 17.476 154.844 17.332 156.176 17.332C159.092 17.332 160.964 18.988 160.964 21.94C160.964 23.02 160.64 24.784 160.388 26.116C160.208 27.052 160.136 27.952 160.136 28.816C160.136 30.112 160.388 31.012 161.9 31.012C163.16 31.012 164.492 30.112 165.5 29.392C167.264 28.096 168.848 26.548 170.108 24.748C170.936 25.972 172.268 27.592 173.348 28.636C170.252 32.2 165.824 36.052 160.82 36.052C157.472 36.052 155.312 34.036 155.312 30.652C155.312 29.428 155.42 28.168 155.564 27.124C155.744 25.972 155.924 24.496 155.924 23.524C155.924 22.372 155.456 21.616 154.196 21.616C152.108 21.616 150.668 23.344 149.588 24.928C147.896 27.412 145.412 32.488 144.548 35.368L139.508 33.244C141.884 29.284 144.296 24.424 146.564 19.78C149.444 13.912 152.072 7.972 153.764 3.328Z" fill="black"/>
<path d="M131.143 20.032C131.143 26.584 129.523 32.524 124.123 36.7C123.115 35.368 121.711 34.216 120.163 33.352C126.103 29.176 126.463 24.388 126.463 17.692C124.087 17.908 121.675 18.088 119.263 18.088C119.011 18.088 118.831 18.088 118.219 18.052L117.787 13.12C119.263 13.264 120.775 13.372 122.251 13.372C123.619 13.372 124.987 13.3 126.355 13.156C126.175 10.24 125.923 7.144 125.491 4.264L130.639 4.732C131.431 4.804 131.611 4.876 131.611 5.164C131.611 5.488 131.287 5.596 131.035 5.668V9.088C131.035 10.204 131.035 11.32 131.071 12.436C133.519 11.896 134.671 11.572 136.651 10.78C136.651 13.732 136.687 14.632 136.759 15.496C134.923 16.18 133.015 16.648 131.107 16.972C131.143 18.484 131.143 19.168 131.143 20.032ZM108.283 4.768L113.287 6.064C113.719 6.172 113.827 6.244 113.827 6.46C113.827 6.892 113.359 7 113.035 7.072C111.631 11.176 111.127 15.82 111.127 20.14C111.127 22.3 111.271 24.604 111.883 26.656C112.387 24.964 113.107 23.308 113.899 21.724C115.123 22.66 115.879 23.2 117.247 23.92C115.519 26.764 113.755 31.3 113.395 34.612L109.471 35.296C107.203 30.688 106.447 24.28 106.447 19.168C106.447 14.632 107.023 9.124 108.283 4.768Z" fill="black"/>
<path d="M80.9585 3.328L85.7465 5.632C85.9985 5.74 86.2865 5.884 86.2865 6.208C86.2865 6.532 85.9625 6.604 85.6745 6.604C85.5665 6.604 85.4945 6.604 85.2065 6.568C84.6305 7.576 83.8745 9.016 83.2625 10.276C81.7145 13.516 80.4905 16.036 79.4465 18.16C80.5985 17.476 82.0385 17.332 83.3705 17.332C86.2865 17.332 88.1585 18.988 88.1585 21.94C88.1585 23.02 87.8345 24.784 87.5825 26.116C87.4025 27.052 87.3305 27.952 87.3305 28.816C87.3305 30.112 87.5825 31.012 89.0945 31.012C90.3545 31.012 91.6865 30.112 92.6945 29.392C94.4585 28.096 96.0425 26.548 97.3025 24.748C98.1305 25.972 99.4625 27.592 100.543 28.636C97.4465 32.2 93.0185 36.052 88.0145 36.052C84.6665 36.052 82.5065 34.036 82.5065 30.652C82.5065 29.428 82.6145 28.168 82.7585 27.124C82.9385 25.972 83.1185 24.496 83.1185 23.524C83.1185 22.372 82.6505 21.616 81.3905 21.616C79.3025 21.616 77.8625 23.344 76.7825 24.928C75.0905 27.412 72.6065 32.488 71.7425 35.368L66.7025 33.244C69.0785 29.284 71.4905 24.424 73.7585 19.78C76.6385 13.912 79.2665 7.972 80.9585 3.328Z" fill="black"/>
<path d="M46.6772 14.452C46.0292 13.516 45.3092 12.616 44.3012 11.392L47.6492 9.736C48.5852 10.78 49.4492 11.824 50.3852 13.048C51.7172 12.652 52.9772 12.4 54.3812 12.4C58.3772 12.4 61.4372 14.992 61.4372 19.096C61.4372 25 55.2812 26.224 50.6012 26.44C50.3852 25.036 49.9532 23.596 49.1612 22.444C49.7012 22.48 50.1332 22.48 50.4212 22.48C52.8692 22.48 57.2252 22.156 57.2252 18.808C57.2252 17.044 55.9292 16.216 54.2732 16.216C53.8412 16.216 53.1572 16.288 52.6892 16.36C53.3012 17.368 53.8412 18.34 54.3812 19.384C53.0852 19.888 51.7892 20.428 50.4932 21.04C50.0252 19.888 49.4492 18.736 48.8372 17.62C47.7212 18.088 46.4252 18.772 45.3452 19.384C47.5412 24.1 49.2332 28.816 50.5652 33.856C49.2332 34.396 47.6852 35.188 46.3532 35.944C45.7772 31.732 43.6532 25.288 41.8532 21.436C40.4492 22.372 39.0812 23.452 37.3172 24.892L34.6892 20.752C36.2012 20.068 37.8572 19.168 40.0532 17.944C39.0812 16.216 38.2532 14.812 36.8132 13.012L40.8092 11.356C41.1332 11.212 41.3492 11.14 41.4572 11.14C41.6372 11.14 41.7452 11.284 41.7452 11.428C41.7452 11.5 41.7092 11.644 41.4932 11.932C42.2492 13.228 42.9692 14.56 43.6532 15.928C44.6972 15.388 45.7772 14.848 46.6772 14.452Z" fill="black"/>
<path d="M4.79599 4.336L10.448 5.128C11.024 5.2 11.276 5.308 11.276 5.632C11.276 5.884 11.024 6.064 10.484 6.244C9.61999 11.068 9.43999 17.728 9.43999 22.696C9.43999 24.46 9.47599 27.376 10.124 28.96C10.736 30.508 11.78 31.012 13.4 31.012C16.46 31.012 19.88 28.852 21.932 26.692C23.516 25.036 25.424 22.624 26.396 20.536C27.512 21.976 28.664 23.344 30.032 24.568C26.324 30.544 20.348 36.088 12.896 36.088C9.15198 36.088 6.30799 34.18 5.33599 30.508C4.54399 27.628 4.47198 24.1 4.47198 21.112C4.47198 18.664 4.57998 15.964 4.68798 13.624C4.75999 12.076 4.86798 9.124 4.86798 6.784C4.86798 5.956 4.86798 5.128 4.79599 4.336ZM24.884 4.876C26.216 5.992 27.692 7.396 28.808 8.728C28.016 9.268 27.188 10.06 26.576 10.78C25.46 9.412 23.948 7.828 22.616 6.712L24.884 4.876ZM21.5 7.72C22.976 8.908 24.344 10.24 25.532 11.752C24.488 12.544 24.02 12.976 23.156 13.948C21.86 12.4 20.78 11.248 19.232 9.988L21.5 7.72Z" fill="black"/>
</svg>
