<svg width="207" height="22" viewBox="0 0 207 22" fill="none" xmlns="http://www.w3.org/2000/svg">
<path d="M198.942 17.4092C198.037 17.4092 197.259 17.279 196.608 17.0186C195.957 16.7581 195.443 16.3968 195.065 15.9346C194.694 15.4658 194.476 14.9255 194.411 14.3135L194.401 14.2744H196.813L196.823 14.3135C196.94 14.7041 197.178 15.0199 197.536 15.2607C197.894 15.4951 198.373 15.6123 198.972 15.6123C199.382 15.6123 199.737 15.557 200.036 15.4463C200.336 15.3356 200.57 15.1826 200.739 14.9873C200.909 14.7855 200.993 14.5511 200.993 14.2842V14.2744C200.993 13.9619 200.869 13.7015 200.622 13.4932C200.381 13.2848 199.974 13.1156 199.401 12.9854L197.673 12.6045C197.002 12.4548 196.446 12.2464 196.003 11.9795C195.56 11.7126 195.228 11.3838 195.007 10.9932C194.792 10.6025 194.685 10.1501 194.685 9.63574V9.62598C194.685 8.98145 194.864 8.41829 195.222 7.93652C195.58 7.44824 196.078 7.06738 196.716 6.79395C197.354 6.52051 198.09 6.38379 198.923 6.38379C199.789 6.38379 200.531 6.52051 201.149 6.79395C201.774 7.06087 202.259 7.42546 202.604 7.8877C202.956 8.34993 203.155 8.87077 203.2 9.4502V9.48926H200.925L200.915 9.4502C200.837 9.09212 200.625 8.79264 200.28 8.55176C199.942 8.30436 199.489 8.18066 198.923 8.18066C198.558 8.18066 198.239 8.236 197.966 8.34668C197.692 8.45085 197.478 8.60059 197.321 8.7959C197.165 8.99121 197.087 9.22233 197.087 9.48926V9.49902C197.087 9.70085 197.139 9.88314 197.243 10.0459C197.347 10.2021 197.513 10.3389 197.741 10.4561C197.976 10.5667 198.282 10.6676 198.659 10.7588L200.378 11.1494C201.433 11.3838 202.204 11.7288 202.692 12.1846C203.187 12.6403 203.435 13.2555 203.435 14.0303V14.0498C203.435 14.7204 203.239 15.3096 202.849 15.8174C202.465 16.3187 201.934 16.7093 201.257 16.9893C200.586 17.2692 199.815 17.4092 198.942 17.4092Z" fill="black"/>
<path d="M187.116 17.1943V6.59863H189.548V8.26855H189.685C189.86 7.68262 190.179 7.22689 190.642 6.90137C191.104 6.57585 191.67 6.41309 192.341 6.41309C192.523 6.41309 192.696 6.42611 192.858 6.45215C193.028 6.47168 193.168 6.49447 193.278 6.52051V8.70801C193.103 8.66243 192.917 8.62988 192.722 8.61035C192.533 8.58431 192.334 8.57129 192.126 8.57129C191.605 8.57129 191.149 8.6722 190.759 8.87402C190.375 9.06934 190.075 9.35254 189.86 9.72363C189.652 10.0882 189.548 10.5277 189.548 11.042V17.1943H187.116Z" fill="black"/>
<path d="M179.782 17.4092C178.734 17.4092 177.826 17.1878 177.058 16.7451C176.296 16.3024 175.707 15.6709 175.29 14.8506C174.88 14.0238 174.675 13.0407 174.675 11.9014V11.8818C174.675 10.749 174.883 9.77246 175.3 8.95215C175.716 8.12533 176.306 7.49056 177.067 7.04785C177.836 6.60514 178.741 6.38379 179.782 6.38379C180.83 6.38379 181.735 6.60514 182.497 7.04785C183.259 7.49056 183.848 8.12207 184.265 8.94238C184.681 9.7627 184.89 10.7425 184.89 11.8818V11.9014C184.89 13.0407 184.681 14.0238 184.265 14.8506C183.854 15.6709 183.269 16.3024 182.507 16.7451C181.745 17.1878 180.837 17.4092 179.782 17.4092ZM179.782 15.4365C180.336 15.4365 180.808 15.2965 181.198 15.0166C181.589 14.7367 181.888 14.333 182.097 13.8057C182.305 13.2783 182.409 12.6436 182.409 11.9014V11.8818C182.409 11.1396 182.305 10.5081 182.097 9.9873C181.888 9.45996 181.589 9.05632 181.198 8.77637C180.808 8.49642 180.336 8.35645 179.782 8.35645C179.235 8.35645 178.767 8.49642 178.376 8.77637C177.985 9.05632 177.686 9.45996 177.478 9.9873C177.269 10.5081 177.165 11.1396 177.165 11.8818V11.9014C177.165 12.6501 177.269 13.2881 177.478 13.8154C177.686 14.3428 177.985 14.7464 178.376 15.0264C178.767 15.2998 179.235 15.4365 179.782 15.4365Z" fill="black"/>
<path d="M168.454 17.4092C167.549 17.4092 166.771 17.279 166.12 17.0186C165.469 16.7581 164.955 16.3968 164.577 15.9346C164.206 15.4658 163.988 14.9255 163.923 14.3135L163.913 14.2744H166.325L166.335 14.3135C166.452 14.7041 166.69 15.0199 167.048 15.2607C167.406 15.4951 167.884 15.6123 168.483 15.6123C168.894 15.6123 169.248 15.557 169.548 15.4463C169.847 15.3356 170.082 15.1826 170.251 14.9873C170.42 14.7855 170.505 14.5511 170.505 14.2842V14.2744C170.505 13.9619 170.381 13.7015 170.134 13.4932C169.893 13.2848 169.486 13.1156 168.913 12.9854L167.185 12.6045C166.514 12.4548 165.957 12.2464 165.515 11.9795C165.072 11.7126 164.74 11.3838 164.519 10.9932C164.304 10.6025 164.196 10.1501 164.196 9.63574V9.62598C164.196 8.98145 164.375 8.41829 164.733 7.93652C165.091 7.44824 165.59 7.06738 166.228 6.79395C166.866 6.52051 167.601 6.38379 168.435 6.38379C169.3 6.38379 170.043 6.52051 170.661 6.79395C171.286 7.06087 171.771 7.42546 172.116 7.8877C172.468 8.34993 172.666 8.87077 172.712 9.4502V9.48926H170.437L170.427 9.4502C170.349 9.09212 170.137 8.79264 169.792 8.55176C169.453 8.30436 169.001 8.18066 168.435 8.18066C168.07 8.18066 167.751 8.236 167.478 8.34668C167.204 8.45085 166.989 8.60059 166.833 8.7959C166.677 8.99121 166.599 9.22233 166.599 9.48926V9.49902C166.599 9.70085 166.651 9.88314 166.755 10.0459C166.859 10.2021 167.025 10.3389 167.253 10.4561C167.487 10.5667 167.793 10.6676 168.171 10.7588L169.89 11.1494C170.944 11.3838 171.716 11.7288 172.204 12.1846C172.699 12.6403 172.946 13.2555 172.946 14.0303V14.0498C172.946 14.7204 172.751 15.3096 172.36 15.8174C171.976 16.3187 171.446 16.7093 170.769 16.9893C170.098 17.2692 169.326 17.4092 168.454 17.4092Z" fill="black"/>
<path d="M157.849 17.4092C156.944 17.4092 156.166 17.279 155.515 17.0186C154.864 16.7581 154.349 16.3968 153.972 15.9346C153.601 15.4658 153.382 14.9255 153.317 14.3135L153.308 14.2744H155.72L155.729 14.3135C155.847 14.7041 156.084 15.0199 156.442 15.2607C156.8 15.4951 157.279 15.6123 157.878 15.6123C158.288 15.6123 158.643 15.557 158.942 15.4463C159.242 15.3356 159.476 15.1826 159.646 14.9873C159.815 14.7855 159.899 14.5511 159.899 14.2842V14.2744C159.899 13.9619 159.776 13.7015 159.528 13.4932C159.287 13.2848 158.881 13.1156 158.308 12.9854L156.579 12.6045C155.909 12.4548 155.352 12.2464 154.909 11.9795C154.466 11.7126 154.134 11.3838 153.913 10.9932C153.698 10.6025 153.591 10.1501 153.591 9.63574V9.62598C153.591 8.98145 153.77 8.41829 154.128 7.93652C154.486 7.44824 154.984 7.06738 155.622 6.79395C156.26 6.52051 156.996 6.38379 157.829 6.38379C158.695 6.38379 159.437 6.52051 160.056 6.79395C160.681 7.06087 161.166 7.42546 161.511 7.8877C161.862 8.34993 162.061 8.87077 162.106 9.4502V9.48926H159.831L159.821 9.4502C159.743 9.09212 159.532 8.79264 159.187 8.55176C158.848 8.30436 158.396 8.18066 157.829 8.18066C157.465 8.18066 157.146 8.236 156.872 8.34668C156.599 8.45085 156.384 8.60059 156.228 8.7959C156.071 8.99121 155.993 9.22233 155.993 9.48926V9.49902C155.993 9.70085 156.045 9.88314 156.149 10.0459C156.254 10.2021 156.42 10.3389 156.647 10.4561C156.882 10.5667 157.188 10.6676 157.565 10.7588L159.284 11.1494C160.339 11.3838 161.11 11.7288 161.599 12.1846C162.093 12.6403 162.341 13.2555 162.341 14.0303V14.0498C162.341 14.7204 162.146 15.3096 161.755 15.8174C161.371 16.3187 160.84 16.7093 160.163 16.9893C159.493 17.2692 158.721 17.4092 157.849 17.4092Z" fill="black"/>
<path d="M148.62 17.1943V6.59863H151.052V17.1943H148.62ZM149.841 4.87988C149.45 4.87988 149.115 4.74316 148.835 4.46973C148.555 4.18978 148.415 3.85775 148.415 3.47363C148.415 3.08301 148.555 2.75098 148.835 2.47754C149.115 2.2041 149.45 2.06738 149.841 2.06738C150.231 2.06738 150.567 2.2041 150.847 2.47754C151.127 2.75098 151.267 3.08301 151.267 3.47363C151.267 3.85775 151.127 4.18978 150.847 4.46973C150.567 4.74316 150.231 4.87988 149.841 4.87988Z" fill="black"/>
<path d="M141.833 17.4092C140.772 17.4092 139.86 17.1878 139.099 16.7451C138.343 16.3024 137.761 15.6676 137.351 14.8408C136.947 14.014 136.745 13.0277 136.745 11.8818V11.8623C136.745 10.723 136.947 9.74642 137.351 8.93262C137.761 8.1123 138.343 7.48405 139.099 7.04785C139.86 6.60514 140.769 6.38379 141.823 6.38379C142.735 6.38379 143.519 6.54655 144.177 6.87207C144.841 7.19759 145.365 7.6403 145.749 8.2002C146.133 8.76009 146.368 9.40462 146.452 10.1338V10.1826H144.157L144.147 10.1436C144.043 9.62923 143.796 9.2028 143.405 8.86426C143.015 8.52572 142.491 8.35645 141.833 8.35645C141.286 8.35645 140.817 8.49642 140.427 8.77637C140.043 9.05632 139.746 9.45671 139.538 9.97754C139.33 10.4984 139.226 11.1266 139.226 11.8623V11.8818C139.226 12.6305 139.33 13.2718 139.538 13.8057C139.746 14.333 140.046 14.7367 140.437 15.0166C140.827 15.2965 141.293 15.4365 141.833 15.4365C142.465 15.4365 142.972 15.29 143.356 14.9971C143.741 14.6976 144.004 14.2712 144.147 13.7178L144.167 13.6592H146.452L146.442 13.7275C146.338 14.4502 146.091 15.0882 145.7 15.6416C145.316 16.195 144.799 16.6279 144.147 16.9404C143.496 17.2529 142.725 17.4092 141.833 17.4092Z" fill="black"/>
<path d="M129.382 17.5166C128.295 17.5166 127.347 17.3506 126.54 17.0186C125.739 16.6865 125.104 16.2178 124.636 15.6123C124.174 15.0068 123.913 14.2939 123.854 13.4736L123.845 13.3369H126.286L126.296 13.4443C126.341 13.8415 126.501 14.1865 126.774 14.4795C127.054 14.7725 127.422 15.0003 127.878 15.1631C128.34 15.3258 128.868 15.4072 129.46 15.4072C130.039 15.4072 130.544 15.3226 130.974 15.1533C131.41 14.9775 131.748 14.7367 131.989 14.4307C132.237 14.1182 132.36 13.7633 132.36 13.3662V13.3564C132.36 12.8421 132.162 12.4255 131.765 12.1064C131.374 11.7874 130.723 11.5303 129.812 11.335L128.298 11.0225C126.866 10.723 125.817 10.238 125.153 9.56738C124.489 8.89681 124.157 8.03743 124.157 6.98926V6.97949C124.164 6.13965 124.388 5.40723 124.831 4.78223C125.28 4.15072 125.896 3.65918 126.677 3.30762C127.465 2.95605 128.366 2.78027 129.382 2.78027C130.417 2.78027 131.315 2.9528 132.077 3.29785C132.839 3.6429 133.438 4.11491 133.874 4.71387C134.31 5.31283 134.558 5.99642 134.616 6.76465L134.626 6.90137H132.214L132.194 6.78418C132.136 6.40658 131.983 6.0778 131.735 5.79785C131.494 5.51139 131.172 5.29004 130.769 5.13379C130.365 4.97103 129.896 4.88965 129.362 4.88965C128.835 4.88965 128.369 4.97103 127.966 5.13379C127.569 5.29004 127.256 5.51139 127.028 5.79785C126.8 6.08431 126.687 6.42611 126.687 6.82324V6.83301C126.687 7.3278 126.879 7.7347 127.263 8.05371C127.653 8.37272 128.285 8.62337 129.157 8.80566L130.671 9.12793C131.66 9.33626 132.465 9.61296 133.083 9.95801C133.701 10.3031 134.157 10.7327 134.45 11.2471C134.743 11.7614 134.89 12.3766 134.89 13.0928V13.1025C134.89 14.0075 134.665 14.792 134.216 15.4561C133.773 16.1136 133.138 16.6214 132.312 16.9795C131.491 17.3376 130.515 17.5166 129.382 17.5166Z" fill="black"/>
<path d="M114.929 12.5947V10.4072H121.394V12.5947H114.929Z" fill="black"/>
<path d="M107.448 17.1943V6.59863H109.88V8.26855H110.017C110.192 7.68262 110.511 7.22689 110.974 6.90137C111.436 6.57585 112.002 6.41309 112.673 6.41309C112.855 6.41309 113.028 6.42611 113.19 6.45215C113.36 6.47168 113.5 6.49447 113.61 6.52051V8.70801C113.435 8.66243 113.249 8.62988 113.054 8.61035C112.865 8.58431 112.666 8.57129 112.458 8.57129C111.937 8.57129 111.481 8.6722 111.091 8.87402C110.707 9.06934 110.407 9.35254 110.192 9.72363C109.984 10.0882 109.88 10.5277 109.88 11.042V17.1943H107.448Z" fill="black"/>
<path d="M100.446 17.4092C99.3981 17.4092 98.4932 17.1878 97.7314 16.7451C96.9762 16.2959 96.3936 15.6611 95.9834 14.8408C95.5798 14.0205 95.3779 13.0472 95.3779 11.9209V11.9111C95.3779 10.7979 95.5798 9.8278 95.9834 9.00098C96.3936 8.17415 96.9697 7.53288 97.7119 7.07715C98.4541 6.61491 99.3298 6.38379 100.339 6.38379C101.341 6.38379 102.207 6.60514 102.937 7.04785C103.672 7.49056 104.235 8.1123 104.626 8.91309C105.023 9.70736 105.222 10.6383 105.222 11.7061V12.5068H96.5986V10.876H104.04L102.878 12.3994V11.4326C102.878 10.7295 102.771 10.1468 102.556 9.68457C102.341 9.22233 102.045 8.87402 101.667 8.63965C101.296 8.40527 100.863 8.28809 100.368 8.28809C99.8734 8.28809 99.4339 8.40853 99.0498 8.64941C98.6657 8.8903 98.3597 9.24512 98.1318 9.71387C97.9105 10.1826 97.7998 10.7555 97.7998 11.4326V12.3994C97.7998 13.0505 97.9072 13.6071 98.1221 14.0693C98.3434 14.5316 98.6559 14.8864 99.0596 15.1338C99.4697 15.3812 99.9515 15.5049 100.505 15.5049C100.935 15.5049 101.306 15.443 101.618 15.3193C101.931 15.1891 102.185 15.0329 102.38 14.8506C102.575 14.6618 102.712 14.4795 102.79 14.3037L102.819 14.2354H105.114L105.095 14.3232C105.01 14.6813 104.854 15.0426 104.626 15.4072C104.398 15.7653 104.095 16.0973 103.718 16.4033C103.34 16.7028 102.878 16.9469 102.331 17.1357C101.791 17.318 101.162 17.4092 100.446 17.4092Z" fill="black"/>
<path d="M83.4834 20.71V6.59863H85.915V8.29785H86.0518C86.2536 7.90072 86.5107 7.56543 86.8232 7.29199C87.1357 7.01204 87.5003 6.7972 87.917 6.64746C88.3337 6.49121 88.7894 6.41309 89.2842 6.41309C90.1761 6.41309 90.9476 6.6377 91.5986 7.08691C92.2497 7.52962 92.7542 8.16113 93.1123 8.98145C93.4704 9.79525 93.6494 10.7653 93.6494 11.8916V11.9014C93.6494 13.0342 93.4704 14.0107 93.1123 14.8311C92.7607 15.6449 92.2594 16.2731 91.6084 16.7158C90.9574 17.1585 90.1859 17.3799 89.2939 17.3799C88.8057 17.3799 88.3499 17.3018 87.9268 17.1455C87.5101 16.9893 87.139 16.7712 86.8135 16.4912C86.4945 16.2113 86.2406 15.876 86.0518 15.4854H85.915V20.71H83.4834ZM88.542 15.3291C89.0889 15.3291 89.5576 15.1924 89.9482 14.9189C90.3389 14.639 90.6383 14.2451 90.8467 13.7373C91.0615 13.223 91.1689 12.611 91.1689 11.9014V11.8916C91.1689 11.1755 91.0615 10.5635 90.8467 10.0557C90.6383 9.54134 90.3389 9.14746 89.9482 8.87402C89.5576 8.60059 89.0889 8.46387 88.542 8.46387C88.0016 8.46387 87.5296 8.60384 87.126 8.88379C86.7288 9.15723 86.4229 9.55111 86.208 10.0654C85.9932 10.5732 85.8857 11.182 85.8857 11.8916V11.9014C85.8857 12.6045 85.9932 13.2132 86.208 13.7275C86.4294 14.2419 86.7386 14.639 87.1357 14.9189C87.5329 15.1924 88.0016 15.3291 88.542 15.3291Z" fill="black"/>
<path d="M75.124 17.3701C74.4469 17.3701 73.8447 17.2399 73.3174 16.9795C72.79 16.7191 72.3766 16.3512 72.0771 15.876C71.7777 15.3942 71.6279 14.8343 71.6279 14.1963V14.1768C71.6279 13.5452 71.7842 13.0049 72.0967 12.5557C72.4092 12.0999 72.8649 11.7419 73.4639 11.4814C74.0628 11.221 74.7887 11.0648 75.6416 11.0127L79.5967 10.7783V12.3799L75.9932 12.6143C75.3291 12.6468 74.8343 12.79 74.5088 13.0439C74.1898 13.2913 74.0303 13.6299 74.0303 14.0596V14.0791C74.0303 14.5283 74.1995 14.8799 74.5381 15.1338C74.8831 15.3877 75.3226 15.5146 75.8564 15.5146C76.3447 15.5146 76.7777 15.417 77.1553 15.2217C77.5329 15.0264 77.8324 14.7627 78.0537 14.4307C78.2751 14.0921 78.3857 13.7145 78.3857 13.2979V9.9873C78.3857 9.45345 78.2165 9.04329 77.8779 8.75684C77.5394 8.46387 77.0479 8.31738 76.4033 8.31738C75.8369 8.31738 75.3779 8.42155 75.0264 8.62988C74.6813 8.83171 74.4502 9.11165 74.333 9.46973L74.3232 9.51855H72.0381L72.0479 9.43066C72.126 8.8252 72.3538 8.2946 72.7314 7.83887C73.1156 7.38314 73.6266 7.02832 74.2646 6.77441C74.9092 6.514 75.6579 6.38379 76.5107 6.38379C77.4157 6.38379 78.1872 6.52702 78.8252 6.81348C79.4632 7.09993 79.9515 7.51009 80.29 8.04395C80.6286 8.57129 80.7979 9.20605 80.7979 9.94824V17.1943H78.3857V15.7002H78.2393C78.0439 16.0452 77.79 16.3447 77.4775 16.5986C77.1715 16.846 76.82 17.0381 76.4229 17.1748C76.0257 17.305 75.5928 17.3701 75.124 17.3701Z" fill="black"/>
<path d="M61.2275 12.5361V10.5049H64.9287C65.8337 10.5049 66.5368 10.2738 67.0381 9.81152C67.5394 9.34277 67.79 8.68522 67.79 7.83887V7.81934C67.79 6.96647 67.5394 6.30892 67.0381 5.84668C66.5368 5.38444 65.8337 5.15332 64.9287 5.15332H61.2275V3.10254H65.5439C66.501 3.10254 67.3376 3.29785 68.0537 3.68848C68.7699 4.0791 69.3298 4.62923 69.7334 5.33887C70.137 6.04199 70.3389 6.86556 70.3389 7.80957V7.8291C70.3389 8.7666 70.137 9.59017 69.7334 10.2998C69.3298 11.0029 68.7699 11.5531 68.0537 11.9502C67.3376 12.3408 66.501 12.5361 65.5439 12.5361H61.2275ZM59.9678 17.1943V3.10254H62.4873V17.1943H59.9678Z" fill="black"/>
<path d="M50.417 12.5947V10.4072H56.8818V12.5947H50.417Z" fill="black"/>
<path d="M39.8311 17.1943V2.55566H42.2627V17.1943H39.8311ZM46.501 17.1943L42.9365 12.3799L44.6846 10.8271L49.3916 17.1943H46.501ZM42.0186 13.7275L41.9502 10.9541H42.3994L46.3252 6.59863H49.1377L44.4502 11.5498L43.4932 12.2139L42.0186 13.7275Z" fill="black"/>
<path d="M32.9854 17.4092C31.9242 17.4092 31.0127 17.1878 30.251 16.7451C29.4958 16.3024 28.9131 15.6676 28.5029 14.8408C28.0993 14.014 27.8975 13.0277 27.8975 11.8818V11.8623C27.8975 10.723 28.0993 9.74642 28.5029 8.93262C28.9131 8.1123 29.4958 7.48405 30.251 7.04785C31.0127 6.60514 31.9209 6.38379 32.9756 6.38379C33.887 6.38379 34.6715 6.54655 35.3291 6.87207C35.9932 7.19759 36.5173 7.6403 36.9014 8.2002C37.2855 8.76009 37.5199 9.40462 37.6045 10.1338V10.1826H35.3096L35.2998 10.1436C35.1956 9.62923 34.9482 9.2028 34.5576 8.86426C34.167 8.52572 33.6429 8.35645 32.9854 8.35645C32.4385 8.35645 31.9697 8.49642 31.5791 8.77637C31.195 9.05632 30.8988 9.45671 30.6904 9.97754C30.4821 10.4984 30.3779 11.1266 30.3779 11.8623V11.8818C30.3779 12.6305 30.4821 13.2718 30.6904 13.8057C30.8988 14.333 31.1982 14.7367 31.5889 15.0166C31.9795 15.2965 32.445 15.4365 32.9854 15.4365C33.6169 15.4365 34.1247 15.29 34.5088 14.9971C34.8929 14.6976 35.1566 14.2712 35.2998 13.7178L35.3193 13.6592H37.6045L37.5947 13.7275C37.4906 14.4502 37.2432 15.0882 36.8525 15.6416C36.4684 16.195 35.9508 16.6279 35.2998 16.9404C34.6488 17.2529 33.8773 17.4092 32.9854 17.4092Z" fill="black"/>
<path d="M21.0713 17.4092C20.0231 17.4092 19.1149 17.1878 18.3467 16.7451C17.585 16.3024 16.9958 15.6709 16.5791 14.8506C16.1689 14.0238 15.9639 13.0407 15.9639 11.9014V11.8818C15.9639 10.749 16.1722 9.77246 16.5889 8.95215C17.0055 8.12533 17.5947 7.49056 18.3564 7.04785C19.1247 6.60514 20.0296 6.38379 21.0713 6.38379C22.1195 6.38379 23.0244 6.60514 23.7861 7.04785C24.5479 7.49056 25.137 8.12207 25.5537 8.94238C25.9704 9.7627 26.1787 10.7425 26.1787 11.8818V11.9014C26.1787 13.0407 25.9704 14.0238 25.5537 14.8506C25.1436 15.6709 24.5576 16.3024 23.7959 16.7451C23.0342 17.1878 22.126 17.4092 21.0713 17.4092ZM21.0713 15.4365C21.6247 15.4365 22.0967 15.2965 22.4873 15.0166C22.8779 14.7367 23.1774 14.333 23.3857 13.8057C23.5941 13.2783 23.6982 12.6436 23.6982 11.9014V11.8818C23.6982 11.1396 23.5941 10.5081 23.3857 9.9873C23.1774 9.45996 22.8779 9.05632 22.4873 8.77637C22.0967 8.49642 21.6247 8.35645 21.0713 8.35645C20.5244 8.35645 20.0557 8.49642 19.665 8.77637C19.2744 9.05632 18.9749 9.45996 18.7666 9.9873C18.5583 10.5081 18.4541 11.1396 18.4541 11.8818V11.9014C18.4541 12.6501 18.5583 13.2881 18.7666 13.8154C18.9749 14.3428 19.2744 14.7464 19.665 15.0264C20.0557 15.2998 20.5244 15.4365 21.0713 15.4365Z" fill="black"/>
<path d="M3.63965 17.1943V3.10254H9.31348C10.3226 3.10254 11.1885 3.28158 11.9111 3.63965C12.6338 3.99772 13.1872 4.50228 13.5713 5.15332C13.9619 5.80436 14.1572 6.58236 14.1572 7.4873V7.50684C14.1572 8.43783 13.9229 9.26465 13.4541 9.9873C12.9854 10.7035 12.3343 11.2113 11.501 11.5107L14.5771 17.1943H11.7061L8.94238 11.8916C8.92285 11.8916 8.90007 11.8916 8.87402 11.8916C8.85449 11.8916 8.83171 11.8916 8.80566 11.8916H6.15918V17.1943H3.63965ZM6.15918 9.94824H9.05957C9.85384 9.94824 10.4723 9.73991 10.915 9.32324C11.3577 8.90007 11.5791 8.31087 11.5791 7.55566V7.53613C11.5791 6.79395 11.348 6.20801 10.8857 5.77832C10.43 5.34863 9.80176 5.13379 9.00098 5.13379H6.15918V9.94824Z" fill="black"/>
</svg>
